<svg xmlns="http://www.w3.org/2000/svg" viewBox="315 85 560 455" role="img" aria-label="Desenho da Comissão Bíblico-Catequética">
    <g>
<path fill="none" stroke="#FFFFFF" stroke-width="2" stroke-miterlimit="10" d="M847.6,127.59c-8.81-7.71-21.58-9.11-31.42-2.4c-13.94,9.71-18.54,27.67-20.93,43.3l0.05,0.01l-0.63,3.59
            c-0.03-0.04-0.06-0.08-0.09-0.12l-0.66,3.82l-1.24,7.24c0.02,0.04,0.05,0.08,0.07,0.11l-11.83,67.99l-1.67,11.82l-4.22,1.07
            l-0.59,0.15l0.51-0.14l0.08-0.01l13.85-86.01l1.83-10.6c-3.56-3.84-7.54-7.3-11.89-10.27c-35.39-24.56-84.23-11.87-104.51,24.53
            c0.33-2.82,0.52-5.69,0.53-8.59c0.6-27-13.15-53.85-35.55-69.07c-45.28-30.75-103.5-8.79-121.97,37.01
            c-2.83-2.73-5.88-5.23-9.14-7.46c-37.88-26.29-91.17-9.9-108.35,32.56l2.6,15.04v0.01l8.9,51.52v0.01l1.61,9.31
            c0.16,0.18,0.33,0.36,0.49,0.53c-0.13,0.04-0.25,0.08-0.38,0.12l0.95,5.49c4.65-1.56,9.61-2.54,14.85-2.94
            c0.01,0.84,0.04,1.68,0.06,2.54c0.37,15.15,0.84,34.48-5.73,53.54l1.17,6.77l-0.04,0.18l16.32,94.24l-5.81-7.29l-25.27-145.35
            c0.03,0,0.05-0.02,0.07-0.03l-0.95-5.55c-0.03,0.01-0.05,0.02-0.08,0.03l-13.18-75.8c-0.86-6.17-2.16-12.33-4.16-18.42
            c-5.24-16.86-18.73-34.1-38.61-27.93c-10.57,3.52-18.39,13.19-19.94,24.14c-1.71,11.12,4.16,21.68,13.12,27.84
            c7.48,5.12,15.16,10.02,22.9,14.72l3.77-5.18c-4.55-3.98-9.28-7.77-13.98-11.52l-7.02-5.51c-5.76-4.49-9.84-11.61-8.56-18.85
            c1.73-11.47,15.04-20.94,25.68-13.67c10.8,7.61,14.76,23.4,17.26,35.88l13.72,78.89c-2.95,1.83-5.77,3.93-8.43,6.29
            c-11.02,9.78-19.32,23.84-24.67,41.79c-3.01,10.09-6.75,28.73-7.96,37.23c-0.07,0.2-0.15,0.39-0.22,0.59
            c-2.22,7.84-3.3,15.87-4.32,23.9c-1.15,9.79-1.73,19.65-1.63,29.52h0.01c-0.49,12.44,8.24,22.65,15.35,30.96
            c7.65,8.95,19.58,20.71,31.91,31.46c8.4,7.33,19.04,15.99,24,17.54c0.61,0.28,1.23,0.43,1.87,0.43c1.94,0,4.66-1.32,6.55-7.64
            c1.04-3.48,1.73-8,2.06-13.52l4.53,26.13l10.45,3.72l-2.2-12.65c0.02-0.04,0.05-0.08,0.07-0.12c0.1-0.09,0.2-0.19,0.3-0.28
            l0.05,0.06c1.17-0.81,2.34-1.64,3.5-2.47l2.49,13.31l-2.35,2.86l121.13,43.98c1.41,7.46,9.66,12.32,17.42,12.34
            c0.01,0,0.01,0,0.02,0s0.01,0,0.02,0c7.76-0.02,16.01-4.88,17.42-12.34l121.13-43.98l-0.02-0.02l1.05-0.39
            c0.01,0.01,0.01,0.02,0.02,0.04c0,0,0.36-0.16,0.58-0.26l0.12-0.04v-0.01c0.68-0.29,1.61-0.7,1.61-0.7
            c-2.2-7.24-4.51-14.34-6.55-21.51c-2.07-7.1-3.87-14.42-5.09-21.71c-1.47-8.33-2.2-16.72-2.29-25.1
            c0.76-5.66,2.71-11.34,4.65-16.7c6.18-16.79,15.14-32.43,22.62-48.72c4.64-11.58,8.66-23.36,10.89-35.71
            c0.94-5.52,1.53-11.15,1.35-16.86l7.89,5.26c-0.01,0.31,0,0.6,0.04,0.84c0.14,1.21,0.44,2.37,0.78,3.51
            c0.71,2.28,1.53,4.45,2.92,6.49c0.34,0.43,0.73,0.9,1.22,1.21c0.39,0.21,0.77,0.35,1.14,0.43l-28.68,164.88l10.44-3.71
            l10.96-62.99c2.79,7.12,7.53,13.84,15.63,20.02c5.22,10.81,13.46,18.58,24.34,22.8c1.4,0.54,2.77,0.81,4.09,0.81
            c1.96,0,3.81-0.6,5.45-1.81c11.01-8.07,11.1-42.74,10.58-57.87c6.34-18.88-4.02-52.7-10.77-69.22c-4.37-8.89-5.4-18.59-6-28.47
            c-0.35-4.14-0.4-8.51-1.57-12.67c-0.74-2.62-2.7-4.85-4.42-6.77c-2.32-2.5-4.79-4.78-7.35-6.95c-0.46-0.38-0.92-0.76-1.38-1.14
            c11.09-12.58,17.91-28.88,18.02-46.27c0.28-11.93-2.6-23.83-8-34.46l2.77-15.91h-0.01c1.59-7.85,3.65-15.5,7.3-22.53
            c5.73-11.56,16.67-19.49,28.32-10.1c7.55,6.25,9.7,17.28,3.69,25.42c-2.48,3.85-8.67,8.13-12.28,11.04
            c-4.71,3.75-9.43,7.54-13.98,11.52l3.77,5.18c7.06-4.25,14.08-8.81,20.95-13.38c6.55-4.18,12.26-10.39,14.37-18.17
            C860.28,146.58,856,134.66,847.6,127.59z M765.92,285.37c-0.77,0.99-1.16,2.27-1.04,3.53l0.01,0.71c0.01,0.74,0.03,1.49,0.05,2.24
            l-7.36-4.9c2.89-0.81,5.7-1.81,8.43-2.97C765.98,284.44,765.95,284.9,765.92,285.37z"/>
        <path fill="#FFFFFF" d="M847.6,127.59c-8.81-7.71-21.58-9.11-31.42-2.4c-13.94,9.71-18.54,27.67-20.93,43.3l0.05,0.01l-0.63,3.59
            c-0.03-0.04-0.06-0.08-0.09-0.12l-0.66,3.82l-1.24,7.24c0.02,0.04,0.05,0.08,0.07,0.11l-11.83,67.99l-1.67,11.82l-4.22,1.07
            l-0.59,0.15l0.51-0.14l0.08-0.01l13.85-86.01l1.83-10.6c-3.56-3.84-7.54-7.3-11.89-10.27c-35.39-24.56-84.23-11.87-104.51,24.53
            c0.33-2.82,0.52-5.69,0.53-8.59c0.6-27-13.15-53.85-35.55-69.07c-45.28-30.75-103.5-8.79-121.97,37.01
            c-2.83-2.73-5.88-5.23-9.14-7.46c-37.88-26.29-91.17-9.9-108.35,32.56l2.6,15.04v0.01l8.9,51.52v0.01l1.61,9.31
            c0.16,0.18,0.33,0.36,0.49,0.53c-0.13,0.04-0.25,0.08-0.38,0.12l0.95,5.49c4.65-1.56,9.61-2.54,14.85-2.94
            c0.01,0.84,0.04,1.68,0.06,2.54c0.37,15.15,0.84,34.48-5.73,53.54l1.17,6.77l-0.04,0.18l16.32,94.24l-5.81-7.29l-25.27-145.35
            c0.03,0,0.05-0.02,0.07-0.03l-0.95-5.55c-0.03,0.01-0.05,0.02-0.08,0.03l-13.18-75.8c-0.86-6.17-2.16-12.33-4.16-18.42
            c-5.24-16.86-18.73-34.1-38.61-27.93c-10.57,3.52-18.39,13.19-19.94,24.14c-1.71,11.12,4.16,21.68,13.12,27.84
            c7.48,5.12,15.16,10.02,22.9,14.72l3.77-5.18c-4.55-3.98-9.28-7.77-13.98-11.52l-7.02-5.51c-5.76-4.49-9.84-11.61-8.56-18.85
            c1.73-11.47,15.04-20.94,25.68-13.67c10.8,7.61,14.76,23.4,17.26,35.88l13.72,78.89c-2.95,1.83-5.77,3.93-8.43,6.29
            c-11.02,9.78-19.32,23.84-24.67,41.79c-3.01,10.09-6.75,28.73-7.96,37.23c-0.07,0.2-0.15,0.39-0.22,0.59
            c-2.22,7.84-3.3,15.87-4.32,23.9c-1.15,9.79-1.73,19.65-1.63,29.52h0.01c-0.49,12.44,8.24,22.65,15.35,30.96
            c7.65,8.95,19.58,20.71,31.91,31.46c8.4,7.33,19.04,15.99,24,17.54c0.61,0.28,1.23,0.43,1.87,0.43c1.94,0,4.66-1.32,6.55-7.64
            c1.04-3.48,1.73-8,2.06-13.52l4.53,26.13l10.45,3.72l-2.2-12.65c0.02-0.04,0.05-0.08,0.07-0.12c0.1-0.09,0.2-0.19,0.3-0.28
            l0.05,0.06c1.17-0.81,2.34-1.64,3.5-2.47l2.49,13.31l-2.35,2.86l121.13,43.98c1.41,7.46,9.66,12.32,17.42,12.34
            c0.01,0,0.01,0,0.02,0s0.01,0,0.02,0c7.76-0.02,16.01-4.88,17.42-12.34l121.13-43.98l-0.02-0.02l1.05-0.39
            c0.01,0.01,0.01,0.02,0.02,0.04c0,0,0.36-0.16,0.58-0.26l0.12-0.04v-0.01c0.68-0.29,1.61-0.7,1.61-0.7
            c-2.2-7.24-4.51-14.34-6.55-21.51c-2.07-7.1-3.87-14.42-5.09-21.71c-1.47-8.33-2.2-16.72-2.29-25.1
            c0.76-5.66,2.71-11.34,4.65-16.7c6.18-16.79,15.14-32.43,22.62-48.72c4.64-11.58,8.66-23.36,10.89-35.71
            c0.94-5.52,1.53-11.15,1.35-16.86l7.89,5.26c-0.01,0.31,0,0.6,0.04,0.84c0.14,1.21,0.44,2.37,0.78,3.51
            c0.71,2.28,1.53,4.45,2.92,6.49c0.34,0.43,0.73,0.9,1.22,1.21c0.39,0.21,0.77,0.35,1.14,0.43l-28.68,164.88l10.44-3.71
            l10.96-62.99c2.79,7.12,7.53,13.84,15.63,20.02c5.22,10.81,13.46,18.58,24.34,22.8c1.4,0.54,2.77,0.81,4.09,0.81
            c1.96,0,3.81-0.6,5.45-1.81c11.01-8.07,11.1-42.74,10.58-57.87c6.34-18.88-4.02-52.7-10.77-69.22c-4.37-8.89-5.4-18.59-6-28.47
            c-0.35-4.14-0.4-8.51-1.57-12.67c-0.74-2.62-2.7-4.85-4.42-6.77c-2.32-2.5-4.79-4.78-7.35-6.95c-0.46-0.38-0.92-0.76-1.38-1.14
            c11.09-12.58,17.91-28.88,18.02-46.27c0.28-11.93-2.6-23.83-8-34.46l2.77-15.91h-0.01c1.59-7.85,3.65-15.5,7.3-22.53
            c5.73-11.56,16.67-19.49,28.32-10.1c7.55,6.25,9.7,17.28,3.69,25.42c-2.48,3.85-8.67,8.13-12.28,11.04
            c-4.71,3.75-9.43,7.54-13.98,11.52l3.77,5.18c7.06-4.25,14.08-8.81,20.95-13.38c6.55-4.18,12.26-10.39,14.37-18.17
            C860.28,146.58,856,134.66,847.6,127.59z M765.92,285.37c-0.77,0.99-1.16,2.27-1.04,3.53l0.01,0.71c0.01,0.74,0.03,1.49,0.05,2.24
            l-7.36-4.9c2.89-0.81,5.7-1.81,8.43-2.97C765.98,284.44,765.95,284.9,765.92,285.37z"/>
        <g>
            <g>
                <path fill="#7A1C2C" d="M604.56,210.73l0.01,0.13c3.31,0.94,6.96-3.08,6.51-6.35c-0.21-1.01-0.63-1.95-0.91-2.92
                    c-1.15-3.87-1.61-8.03-1.02-12.01c0.82-0.81,1.8-1.44,2.86-1.82c-0.12,0.31-0.19,0.65-0.19,1c0,1.56,1.27,2.83,2.83,2.83
                    c1.56,0,2.83-1.27,2.83-2.83c0-0.34-0.07-0.67-0.18-0.97c1.61,0.44,3.3,1.07,4.6,1.43c-0.68-3.35-4.33-4.78-7.43-4.66
                    c-1.5,0-3,0.39-4.34,1.08c2.11-5.03,7.81-5.49,12.63-6.37l0.16-1.41c-3.76-1.55-8.35-1.13-12.1,1.4
                    c-7.5,5.17-5.64,17.95-2.7,25.27c0.31,0.71,0.18,1.3-0.25,2.29C607.08,208.38,606.06,209.63,604.56,210.73"/>
                <path fill="#7A1C2C" d="M602.5,206.34l0.29-0.56c-1.57-1.14-2.08-2.47-1.85-4.36c0.16-1.87,0.28-3.79,0.38-5.69
                    c0.19-3.82,0.33-7.65,0.15-11.48l-0.69-0.05c-0.78,3.77-1.21,7.58-1.5,11.41C599.22,199.28,597.78,205.05,602.5,206.34"/>
                <path fill="#7A1C2C" d="M717.94,230.9c2.6-3.71,4.45-7.8,6.82-11.61c0.57-1.1,1.88-1.31,3.02-1.59c3.48-0.71,7.14-0.84,10.41,0.82
                    c3.43,1.61,6.1,4.56,8.26,7.7l0.61-0.32c-0.72-1.89-1.7-3.71-2.94-5.39c-3.72-5.2-11.12-8.37-17.32-5.83
                    c-1.34,0.63-2.73,1.29-3.7,2.54c-1.52,2.4-2.63,4.96-4.02,7.4c-0.94,1.74-1.89,3.48-2.86,5.15c-0.53,0.86-0.92,1.54-1.51,1.84
                    c-0.59,0.35-1.6,0.35-2.58,0.4l-0.14,0.73c0.48,0.21,0.97,0.37,1.52,0.48C715.49,233.69,716.92,232.48,717.94,230.9"/>
                <path fill="#7A1C2C" d="M595.35,211.55l0.31-0.79c-2.41-1.79-1.76-5.25,0.63-6.72l-0.33-1.03
                    C591.39,203.46,590.49,210.8,595.35,211.55"/>
                <path fill="#7A1C2C" d="M580.83,185.69c0,1.77,1.43,3.2,3.2,3.2s3.2-1.43,3.2-3.2c0-0.37-0.08-0.73-0.19-1.06
                    c1.8,0.48,3.5,1.26,5.05,2.45l-2.45,1.1l0.24,0.75c0.86-0.17,4.51-0.89,5.3-1.04c-4.05-6.63-13.23-8.97-19.17-3.36
                    c1.75-0.29,3.54-0.49,5.32-0.52C581.01,184.5,580.83,185.07,580.83,185.69"/>
                <path fill="#7A1C2C" d="M725.89,223.11l0.81,0.71l2.52,2.21l0.59-0.51l-1.1-1.75c1.6-0.38,3.23-0.45,4.82-0.26
                    c-0.22,0.17-0.42,0.35-0.6,0.58c-1.08,1.4-0.82,3.4,0.57,4.48c1.4,1.08,3.4,0.82,4.48-0.57c0.66-0.85,0.81-1.92,0.53-2.88
                    c1.73,0.96,3.26,2.29,4.47,3.99C742.44,220.54,731.96,218.89,725.89,223.11"/>
                <path fill="#7A1C2C" d="M599.36,209.33c0.87-0.87,1.2-1.97,0.72-2.45c-0.48-0.48-1.58-0.16-2.45,0.72
                    c-0.87,0.88-1.2,1.97-0.72,2.45C597.39,210.53,598.49,210.2,599.36,209.33"/>
                <path fill="#7A1C2C" d="M720.25,233.67l-0.79,0.74c1.35,2.46,0.22,5.79-2.77,6.16l-0.12,0.84c0.86,0.38,1.97,0.38,2.92-0.07
                    C722.43,240.06,722.87,235.47,720.25,233.67"/>
                <path fill="#7A1C2C" d="M714.25,234.96c-0.67,0.18-0.94,1.33-0.6,2.55c0.34,1.23,1.16,2.07,1.83,1.88c0.67-0.19,0.94-1.33,0.6-2.55
                    C715.74,235.61,714.92,234.77,714.25,234.96"/>
                <path fill="#7A1C2C" d="M556.01,313.9l0.96,0.27c2.75-6.53,1.31-14.44-2.88-20c0,0-1,0.61-1,0.62
                    C556.24,300.67,557.2,307.36,556.01,313.9"/>
                <path fill="#7A1C2C" d="M568.97,286.57l-0.84-0.58c-2.29,2-4.69,3.93-7.49,5.13c-0.9,0.41-1.84,0.67-2.86,1l-0.01,0.98
                    C562.43,294.14,567.01,290.61,568.97,286.57"/>
                <path fill="#7A1C2C" d="M757.45,239.22c-0.75,1.56-0.65,3.46-0.51,5.11c0.12,2.26,0.1,4.95-2.18,6.1l-0.02,0.57
                    c1.08,0.34,2.27-0.16,3.05-0.99c1.41-1.66,1.46-3.87,1.3-5.86c-0.1-0.98-0.3-2.19-0.22-3.15c0.32-3.77,4.31-3.74,4.65,0.03
                    l0.74,0.02c0.1-0.96-0.04-2.03-0.67-2.92C761.88,235.75,758.42,236.66,757.45,239.22"/>
                <path fill="#7A1C2C" d="M485.67,211.47l0.78-0.1c0.31-2.06-0.33-4.19-1.36-5.96c-3.14-5.28-9.63-8.21-15.64-7.48l-0.11,1.11
                    C476.1,201.24,482.32,205,485.67,211.47"/>
                <path fill="#7A1C2C" d="M481.74,225.51c-1.15,2.21-2.82,4.02-3.86,6.29c-0.8,1.7-0.11,3.33,1.12,4.58l0.53-0.34
                    c-1.08-2.06-0.9-2.93,0.5-4.69c3.97-4.45,6.41-10.05,8.16-15.7l-0.63-0.27C485.47,218.72,483.68,222.19,481.74,225.51"/>
                <path fill="#7A1C2C" d="M472.44,227.66c-4.19-1.89-8.65,4-4.82,7.09l0.66-0.53c-1.19-2.76,1.11-5.42,3.92-5.5L472.44,227.66"/>
                <path fill="#7A1C2C" d="M481.53,214.23l-0.29-0.94c-4.34,0.66-7.81-1.69-10.26-4.89c-0.82-1.05-1.49-2.19-2.23-3.51
                    c0,0-0.85,0.13-0.85,0.12C466.84,211.95,475.54,217.23,481.53,214.23"/>
                <path fill="#7A1C2C" d="M473.57,234.56c-1.21-0.24-2.31,0.09-2.44,0.76c-0.13,0.66,0.74,1.4,1.95,1.64
                    c1.21,0.24,2.31-0.1,2.44-0.76C475.66,235.54,474.78,234.81,473.57,234.56"/>
                <path fill="#7A1C2C" d="M444.01,199.51c-1.33-1.16-3.41-0.77-4.31,0.69l0.48,0.54c2.59-1.24,3.29,1.68,2.15,3.42
                    c-1.27,2.17-2.93,4.55-2.9,7.33c0.01,1.63,1.26,3.01,2.83,3.28l0.36-0.85c-1.28-0.95-1.42-1.9-0.84-3.29
                    c0.67-1.6,1.96-3.41,2.94-5.05c0.22-0.42,0.5-1.01,0.61-1.47C445.74,202.53,445.36,200.59,444.01,199.51"/>
                <path fill="#7A1C2C" d="M847.56,127.95c-8.81-7.71-21.59-9.11-31.43-2.4c-13.94,9.7-18.54,27.67-20.93,43.3l0.05,0.01l-0.62,3.59
                    c-0.03-0.04-0.06-0.08-0.09-0.12l-0.66,3.82l-1.24,7.24c0.02,0.04,0.05,0.08,0.07,0.11l-11.83,67.99l-1.67,11.82l-4.82,1.22
                    l-0.1,0.03c-2.71,0.87-4.62,3.37-5.13,5.42l-1.44,6.59c-0.32,0.3-0.59,0.64-0.8,1.03c-0.53,0.86-0.58,2.04-0.67,3.04
                    c-3.2,1.53-6.47,2.78-9.79,3.75c-0.01-0.1-0.02-0.19-0.04-0.29c-0.32-2-1.4-3.85-2.94-5.15c-2.19-1.61-6.24-4.16-8.48-5.68
                    c-0.3-0.21-1.13-0.74-1.58-1.04c1.67-3.79,4.19-8.83,6.79-13.74c0.02-0.03,0.05-0.05,0.08-0.08c0.64,0.28,1.26,0.38,1.82,0.4
                    c7.89-0.17,16.6-7.76,17.79-15.92c3.46-5.45,6.97-11.04,8.04-17.6c0.6-3.7,0.25-7.46-0.51-10.99c-0.38-1.47-0.79-3.57-1.05-5.04
                    c-0.61-3.5-0.34-6.9-1.03-10.5c-2.01-9.12-9.28-16.65-18.04-19.61c-3.3-1.2-6.73-1.88-10.17-2.23
                    c-8.2-6.18-18.38-7.8-27.03-1.33c-2.57,1.77-4.38,4.31-6.9,6.13c-2.54,1.93-5.52,3.71-7.07,6.81c-1.54,3.29-1.6,7.15,0.07,10.37
                    c0.24,0.44,0.53,0.85,0.85,1.23c-1.4,1.88-4.07,5.83-4.72,9.46c-0.57,3.19-2.29,6.28-4.11,9.55c-1.25,2.24-2.57,4.62-3.65,7.25
                    c-0.73,1.37-1.23,3.01-1.52,4.73c-0.34,1.48-0.58,3.04-0.65,4.68c-0.26,5.36-1.01,9-1.81,12.85c-0.84,4.04-1.7,8.21-2.03,14.56
                    c-0.02,0.33-0.02,0.65-0.02,0.96l-0.9,0.01c-4.92-5.61-8.97-12.15-11.82-19.55c-19.01-48.69,23.27-99.3,74.47-89.15
                    c15.31,2.86,28.87,11.26,38.54,22.87l1.83-10.6c-3.56-3.85-7.54-7.31-11.88-10.28c-35.39-24.56-84.24-11.87-104.52,24.53
                    c0.33-2.83,0.52-5.69,0.54-8.6c0.59-27-13.16-53.84-35.55-69.07c-45.28-30.75-103.5-8.78-121.97,37.02
                    c-2.82-2.73-5.87-5.24-9.14-7.46c-37.88-26.29-91.17-9.9-108.35,32.56l2.6,15.04c7.89-32.5,40.25-56.94,77.27-49.6
                    c13.32,2.49,25.31,9.19,34.57,18.53c-1.46,5.42-2.4,11.12-2.73,17.04c-4.37-6.55-12.9-13.85-29.48-15.67
                    c-8.66-0.95-15.76-0.38-21.59,1.16l-0.29,0.02l-0.18,0.1c-19.61,5.43-24.47,22.05-25.64,28.9c-9.25,7.86-7.61,24.69-3.49,32.19
                    c-0.2,0.52-0.4,1.03-0.59,1.53c-2.92,7.49-5.48,14.06,2.2,21.88c-0.24,0.75-0.44,1.51-0.59,2.28
                    c-4.84,0.15-9.48,0.74-13.91,1.77c-2.43-2.65-4.67-5.52-6.66-8.6l1.61,9.31c0.16,0.18,0.33,0.36,0.49,0.53
                    c-0.13,0.04-0.25,0.07-0.38,0.11l0.95,5.49c4.66-1.56,9.61-2.54,14.85-2.94c0.02,0.83,0.04,1.67,0.06,2.54
                    c0.37,15.15,0.84,34.48-5.73,53.54l1.17,6.77l-0.04,0.18l16.32,94.25l-5.81-7.3L409.51,250.2c0.02-0.01,0.05-0.02,0.07-0.03
                    l-0.95-5.56c-0.03,0.01-0.06,0.03-0.09,0.04l-13.18-75.8h0c-0.86-6.17-2.17-12.34-4.16-18.43
                    c-5.24-16.86-18.73-34.09-38.61-27.93c-10.56,3.51-18.39,13.18-19.94,24.14c-1.7,11.12,4.16,21.68,13.12,27.83
                    c7.47,5.13,15.15,10.02,22.89,14.72l3.77-5.18c-4.55-3.98-9.27-7.77-13.98-11.52l-7.02-5.51c-5.76-4.49-9.84-11.61-8.56-18.84
                    c1.73-11.47,15.04-20.94,25.68-13.67c10.8,7.61,14.76,23.4,17.26,35.88l13.72,78.9c-2.95,1.83-5.76,3.93-8.43,6.29
                    c-11.02,9.77-19.32,23.84-24.67,41.79c-3.01,10.09-6.74,28.72-7.95,37.23c-0.07,0.19-0.15,0.39-0.22,0.58
                    c-2.22,7.84-3.31,15.87-4.33,23.9c-1.15,9.8-1.72,19.66-1.63,29.53h0.01c-0.49,12.44,8.24,22.65,15.35,30.96
                    c7.65,8.95,19.58,20.71,31.92,31.46c8.4,7.32,19.03,15.98,24,17.54c0.61,0.28,1.23,0.43,1.87,0.43c1.94,0,4.66-1.33,6.55-7.64
                    c1.04-3.47,1.73-8,2.06-13.52l4.54,26.13l10.44,3.72l-2.2-12.64c0.02-0.04,0.04-0.08,0.07-0.12c0.1-0.1,0.2-0.19,0.3-0.28
                    l0.04,0.06c1.18-0.81,2.34-1.64,3.51-2.47l2.48,13.31l-2.34,2.86l121.13,43.98c1.4,7.46,9.65,12.32,17.42,12.34
                    c0.01,0,0.01,0,0.02,0s0.01,0,0.02,0c7.77-0.02,16.02-4.88,17.42-12.34l121.13-43.98l-0.02-0.02l1.05-0.38
                    c0.01,0.01,0.01,0.02,0.02,0.03c0,0,0.36-0.16,0.58-0.25l0.12-0.04l0-0.01c0.68-0.3,1.61-0.7,1.61-0.7
                    c-2.2-7.24-4.52-14.34-6.55-21.51c-2.07-7.09-3.87-14.41-5.09-21.71c-1.47-8.33-2.2-16.72-2.29-25.1
                    c0.77-5.66,2.71-11.34,4.65-16.69c6.19-16.8,15.14-32.44,22.62-48.73c4.64-11.58,8.65-23.36,10.89-35.71
                    c0.94-5.52,1.52-11.15,1.35-16.86l7.89,5.25c-0.01,0.31,0.01,0.61,0.05,0.84c0.14,1.21,0.44,2.37,0.77,3.51
                    c0.71,2.29,1.53,4.45,2.92,6.49c0.34,0.44,0.73,0.9,1.23,1.21c0.39,0.21,0.77,0.35,1.14,0.43L742.3,473.28l10.44-3.71
                    l10.96-62.99c2.79,7.12,7.53,13.84,15.63,20.02c5.22,10.81,13.46,18.58,24.33,22.8c1.4,0.54,2.77,0.81,4.09,0.81
                    c1.97,0,3.81-0.61,5.45-1.81c11.02-8.07,11.1-42.75,10.59-57.87c6.33-18.87-4.03-52.7-10.78-69.22c-4.37-8.89-5.4-18.59-6-28.47
                    c-0.35-4.14-0.4-8.51-1.57-12.67c-0.74-2.62-2.7-4.85-4.42-6.78c-2.32-2.5-4.79-4.78-7.34-6.95c-0.46-0.38-0.92-0.76-1.38-1.14
                    c11.09-12.58,17.91-28.88,18.02-46.27c0.28-11.93-2.6-23.83-8-34.46l2.77-15.91l-0.01,0c1.59-7.84,3.65-15.5,7.3-22.53
                    c5.73-11.56,16.67-19.49,28.33-10.1c7.55,6.26,9.7,17.28,3.69,25.43c-2.48,3.85-8.67,8.13-12.28,11.04
                    c-4.7,3.75-9.43,7.54-13.98,11.52l3.77,5.18c7.06-4.25,14.08-8.81,20.95-13.38c6.55-4.17,12.26-10.39,14.37-18.17
                    C860.24,146.94,855.96,135.02,847.56,127.95 M522.78,397.39c2.02,0.21,3.98,0.32,5.88,0.32c3.25,0,6.36-0.3,9.43-0.88
                    c2.08,0.72,4.32,1.09,6.69,1.09c2.22,0,4.56-0.32,6.99-0.96c0.75-0.19,1.44-0.37,2.09-0.54c6.91-1.76,9.77-2.49,13.12-10.1
                    c1.36-3.07,3.25-11.56,4.79-21.69c2.11-2.4,7.98-9.62,20.71-28.48c2.43,1.84,5.2,3.23,8.2,4.01c2.42,2.86,5.71,6.61,9.45,10.5
                    c-18.87,30.42-40.58,52.32-64.64,65.21c-7.86-2.28-13.66-3.38-14.33-3.5l-1.25-0.23l-0.15,0.19l-7.14,2.18
                    C522.38,408.79,522.42,402.4,522.78,397.39 M436.02,440.21c-1.08-0.77-2.42-1.7-3.42-2.58c-6.95-6.13-6.15-13.5-6.47-22.04
                    l-1.27-0.19c-0.82,2.24-1.24,4.58-1.34,6.94l-4.23-5.31c1.8-7.54,4.54-11.79,7-14.17c2.82-2.72,5.42-3.22,6.4-3.31l31.26,39
                    c0.67,1.08,0.77,3.08,0.83,4.41c0.13,2.61,0.8,10.93,0.86,11.72c0,0.36-0.17,0.7-0.46,0.93c-0.48,0.39-1.41,0.41-2.17,0.05
                    c-0.19-0.09-0.83-0.44-0.83-1.03l-0.06-1.33c0.4-0.69,0.68-1.44,0.8-2.22c0.25-1.45-0.06-2.96-0.75-4.25
                    c-2.05-4.13-4.19-8.15-6.54-12.1c-1.18-1.95-2.43-3.88-3.77-5.71l-1.39,0.72c2.51,6.53,6.17,12.46,9,18.81
                    c0.72,1.37-0.02,3.24-0.77,3.83c-0.34,0.24-0.69,0.5-1.05,0.76c0.42-1.9-0.12-3.91-1.11-5.74c-1.04-2.13-2.2-4.2-3.39-6.22
                    c-1.59-2.68-3.39-5.24-5.27-7.66l-1.12,0.54c1.44,4.49,3.9,8.44,5.95,12.62c0.9,2.16,2.92,4.73,1.2,6.95
                    c-0.73,0.75-1.48,1.5-2.23,2.26c0.07-0.13,0.14-0.26,0.21-0.4c0.89-1.75,0.92-3.91,0.07-5.66c-1.12-1.9-2.23-3.81-3.4-5.68
                    c-1.17-1.86-2.38-3.7-3.71-5.46l-1.31,0.73c1.59,4.07,3.64,7.91,5.68,11.76c0.36,0.92,0.31,1.99-0.16,2.85
                    c-0.69,1.23-1.37,2.55-2.06,3.82c-0.36,0.66-0.7,1.32-1.06,1.98l-0.62-3.57c0.01,0,0.02,0,0.02,0
                    C444.64,449.92,441.28,443.89,436.02,440.21 M655.83,251.98c2.18,1.78,4.4,3.79,5.17,5.01c4.27,6.72,16.04,47.09,22.2,69.12
                    c-1.95-1.32-4.11-2.4-6.5-3.22c-14.31-4.92-20.8-0.81-29,4.4c-2.13,1.35-4.5,2.85-7.21,4.32c-0.05-0.18-0.09-0.36-0.14-0.53
                    c0.2-0.36,0.41-0.73,0.6-1.08c0.76-1.09,1.53-2.31,2.28-3.39c7.13-9.65,17.15-16.91,27.84-22.19l-0.24-0.71
                    c-3.7,1-7.24,2.45-10.65,4.21c-8.45,4.41-16.28,10.82-21.12,19.14c-2-5.39-4.3-8.54-5.42-9.86c3.62-6.98,6.94-14.12,9.87-21.44
                    C649.12,281.66,653.6,267.02,655.83,251.98 M688.97,268.33c0.86,3.82,2.9,6.19,4.76,7.62c0.23,2.77,1.64,23.83-5.14,48.96
                    c-3.54-12.68-11.13-39.33-17.04-56.44L688.97,268.33z M486.2,468.57l7.97-3.25c22.36-0.72,75.4,20.02,91.58,40.36l-0.82-0.27
                    C541.27,485.17,509.26,473.55,486.2,468.57 M533.49,389.03c-9.99-10.46-10.01-35.83-4.26-54.32
                    c3.62-11.63,9.14-19.73,15.08-22.33c0.02,6.53,0.98,12.63,2,19.04c1.12,7.03,2.27,14.31,2.23,22.71
                    c-0.02,3.33,0.05,30.75,6.96,37.58c-0.78,0.22-1.64,0.44-2.65,0.69c-0.66,0.17-1.36,0.35-2.12,0.55
                    C543.56,394.83,537.76,393.51,533.49,389.03 M522.61,319.98l0-0.05c-10.38,0.64-21.99,3.63-31.15,9.8
                    c0.58-1.68,1.18-3.46,1.82-5.33c8.52-25.05,22.77-66.97,38.74-75.48c10.38-5.54,26.22-11.97,33.16-14.71l-0.35,14.75
                    c-0.28,0.1-0.56,0.24-0.82,0.41c-0.95,0.63-1.59,1.64-1.75,2.77l-3.01,21.07c-0.7,0.72-1.32,1.38-1.76,1.85l0.03,0.02
                    c-3.32,2.24-6.09,5.2-8.22,8.63c-1.43,2.72-2.24,5.6-2.98,8.53c-0.62,2.74-1.13,5.55-1.42,8.37c-1.68-6.21-3.6-13.17-4.99-18.22
                    c-2.32-8.55-4.79-17.18-6.58-25.86l-1.18,0.15c0.38,4.51,1.21,8.92,2.08,13.32c1.8,8.77,3.96,17.45,6.3,26.09
                    c0.97,3.47,2.33,8.36,3.46,11.98c-1.61,0.53-3.19,1.36-4.71,2.45c-5.55,2.72-10.91,5.78-16.13,9.09
                    C522.99,319.74,522.8,319.86,522.61,319.98 M500.91,229.47c-1.46,0.27-2.95,0.09-4.23-0.71c-0.88-0.53-1.51-1.4-2.15-2.18
                    c-0.56-0.69-1.1-1.43-1.81-2.31c3.6-4.26,9.18-4.08,12.73,0.03c-0.84,1.01-1.7,1.97-2.52,2.88
                    C502.19,227.99,501.51,228.75,500.91,229.47 M507.14,222.06c-0.5-0.91-1.19-1.74-1.99-2.38c-3.59-2.86-9.07-2.81-12.68-0.01
                    c-3.27,2.55-5.26,6.37-6.84,10.12c-1.08,2.69-1.61,5.51-2.12,8.33c-1.05,1.89-3.86,2.82-6.07,3.09l-0.05,0.12
                    c1.57,1.68,4.24,1.35,6.16,0.43c1.26-0.61,2.46-1.66,2.8-3.15c0.18-0.79,0.34-1.68,0.52-2.46c0.88-3.87,2.54-7.45,4.89-10.58
                    c-0.03,0.8,0.14,1.61,0.46,2.35c1.26,2.64,4.03,4.15,6.86,4.31c-5.6,9.77-8.28,12.73-13.8,15.5c-3.49,1.75-4.97,2.13-5.57,2.19
                    c0.01-0.12,0.04-0.28,0.09-0.49c0.81-3.27-0.67-4.34-3.91-6.69c-1.57-1.13-3.71-2.69-6.61-5.11c-7.4-6.2-15.26-3.65-18.52-2.12
                    c-1.36-2.99-4.15-10.16-2.12-15.09c1.74-4.23,3.16-9.87,3.91-13.1l0.01,0c4.05-17.2,9.65-23.89,19.17-22.6
                    c-0.33,1.23-1.23,3.32-3.71,5.75l-1.85,1.81l2.47,0.78c5.02,1.58,11.71,0.04,15.48-1.11c-0.59,1.26-1.64,2.82-3.48,4.22
                    l-1.91,1.46l2.12,1.14c5.16,2.76,11.3,0.19,14.25-1.4c0.14,1.09,0.06,2.79-0.91,5.13l-0.66,1.59l1.65,0.49
                    c5.3,1.58,10.29,0.53,14.24-2.93c3.56,5.7,1.66,12.67-0.75,17.77C508.24,220.34,507.71,221.22,507.14,222.06 M489.97,319.16
                    c-0.6-11.89-2.63-21.86-4.56-28.98c-2.21-8.13-1-18.83-0.05-24.64c8.64-2.87,14.33-4.94,21.06-3.08
                    c0.68,0.19,1.13,0.29,1.39,0.32c1.66,1.01,2.94,2.14,3.67,3.49C502.87,281.93,495.62,302.57,489.97,319.16 M459.51,246.9
                    l-1.21,0.85c0.27,0.62,0.59,1.22,0.94,1.79c-1.13,1.27-2.78,2.71-3.82,2.81c-0.22,0.02-0.32-0.03-0.43-0.13
                    c-0.8-0.71-0.75-2.04-0.66-2.78c0.32-2.43,1.99-4.96,3.26-5.59c0.77-0.39,2.48-0.52,2.99-0.12c1.31,1.02,2.95,2.25,4.56,3.47
                    c1.84,1.39,3.75,2.83,5.04,3.85c0.97,0.76,0.94,2.29,0.67,2.7c-0.14,0.21-0.29,0.43-0.45,0.64
                    C466.07,253.89,462.65,249.65,459.51,246.9 M464.24,255.2c1.1,0.85,2.3,1.54,3.61,1.95c-1.09,0.94-2.21,1.64-3.12,1.78
                    c-0.61,0.1-0.93-0.09-1.15-0.26c-0.5-0.41-0.57-0.75-0.57-1C463.02,256.92,463.59,255.99,464.24,255.2 M442.48,221.37
                    c-0.87-0.15-1.7-0.59-2.48-1.33c-2.39-2.28-3.87-7-3.87-12.32c0-6.17,3.59-11.71,6.95-13.03c0.47-0.18,0.9-0.27,1.3-0.27
                    c0.71,0,1.33,0.29,1.86,0.86C448.89,198.18,446.7,212.6,442.48,221.37 M434.46,251.14c0.91,0.91,2.02,1.68,3.32,2.29
                    c-0.63,3.23-0.28,5.85,1.07,7.8c1.7,2.47,4.49,3.17,6.21,3.36c0.42,2.45,1.88,5.77,5.56,6.72c1.32,0.34,2.49,0.48,3.53,0.48
                    c2.7,0,4.51-0.97,5.65-1.94c0.19-0.16,0.36-0.35,0.54-0.53c2.92,1.4,5.45,1.96,7.61,1.97c-0.85,2.57-1.46,4.88-1.88,6.98
                    c-7.55,1.63-24.59,0.84-31.7-9.86C434.64,262.23,434.57,256.4,434.46,251.14 M472.36,298.27c-2.89-8.77-4.67-14.16,0.29-27.88
                    c1.22-0.51,2.22-1.18,3.02-1.86c1.33-0.37,2.6-0.74,3.82-1.11c-0.89,6.53-1.56,16.25,0.6,24.21
                    c3.76,13.83,5.23,29.38,4.21,43.94c-0.05,0.13-0.1,0.27-0.15,0.4l0.01,0c-2.26,2.47-4.2,5.26-5.71,8.39
                    C479.17,318.94,475.28,307.14,472.36,298.27 M635.68,237.66c0.15,1.74-0.19,4.07-0.49,5.95c-3.25,17.06-9.76,33.7-18.63,48.61
                    c-4.22-1.34-8.83-1.43-13.48-0.2c-1,0.19-1.99,0.44-2.94,0.74c4.18-11.63,7.73-23.64,10.57-33.77
                    c9.52-3.03,15.3-9.81,18.63-17.16c2.34-5.1-4.83-8.79-4.83-8.79l5.69,2.04L635.68,237.66z M699.83,248.25
                    c2.51-0.91,13.94,1.88,16.81,8.23c1.01,2.23-0.75,4.73-1.32,5.44c-1.41,1.79-3.05,2.61-3.55,2.56
                    c-1.24-0.75-2.07-2.15-2.16-3.65c-0.05-0.79,0.09-2.25,1.45-3.36c1.05,0.11,2.11,0.1,3.15-0.05l0.06-1.36
                    c-5.17-1.12-9.6-3.67-14.11-6.34l-0.89,1.06c0.52,0.63,1.08,1.23,1.67,1.79c-0.69,2.46-2.08,5.77-3.39,6.34
                    c-0.16,0.07-0.32,0.11-0.65-0.07c-0.95-0.53-0.97-2.09-0.9-2.97C696.27,252.38,698.55,248.71,699.83,248.25 M615.61,301.57
                    c-0.48,2.96-3.39,6.66-4.65,8l-1.38,1.49l1.99,0.42c0.06,0.01,5.11,1.11,8.7,4.54c-1.77-0.08-4.02-0.54-6.01-1.05
                    c-0.13-0.04-0.25-0.08-0.36-0.12l-0.01,0.02c-0.13-0.03-0.26-0.07-0.38-0.1c-0.04-0.02-0.08-0.04-0.12-0.07
                    c-4.31-2.48-7.5-3.59-9.66-3.36c-2.82-2.63-5.55-5.76-6.4-7.63c4.43,0.79,9.19,5.1,9.25,5.15l1.19,1.08l0.64-1.48
                    C608.42,308.4,610.74,303.13,615.61,301.57 M649.19,412.33l-0.15-0.19l-1.25,0.23c-0.4,0.07-2.67,0.5-6.13,1.33
                    c-0.09-0.47-0.2-0.95-0.32-1.43c-3.2-12.92-1.99-23.31-0.71-34.31c0.67-5.8,1.36-11.77,1.49-18.43
                    c0.93-9.22,0.53-16.73-0.51-22.75c7.91,0.74,14.21,6.77,18.8,17.96c9.25,22.58,7.08,54.63,3,58.13
                    c-1.02,0.88-2.27,1.79-3.65,2.71L649.19,412.33z M591.03,445.3c11.17-18.41,48.93-27.08,56.27-28.61l33.8,44.57
                    c-23.2,1.44-72.21,19.8-90.07,40.57V445.3z M622.09,418.58c0.09,0.32,0.18,0.62,0.27,0.93c-8.5,3.14-17.64,7.4-24.88,12.96
                    c-1.02-20.65,4.36-46.05,10.14-69.42c2.17-3.15,4.14-6.16,5.89-8.99c0.28,0.27,0.56,0.55,0.84,0.83
                    c1.05,1.02,2.17,1.97,3.31,2.86C615.66,384.06,616.75,398.94,622.09,418.58 M566.87,407.98l-2.13,14.83
                    c-4.13-1.84-8.3-3.42-12.22-4.75C557.42,415.13,562.23,411.72,566.87,407.98 M684.79,465.33l7.72,3.14
                    c-23.06,4.91-55.15,16.52-99,36.86C610.02,485.1,662.54,464.59,684.79,465.33 M686.53,461.57l-33.06-43.6l7.65,2.34l32.5,44.15
                    L686.53,461.57z M688.21,338.26c5.76,13.27,3.25,33.54-1.64,42.27c-4.53,8.09-12.46,14.12-15.58,16.3
                    c0.56-13.43-1.52-30.92-6.74-43.67c-4.46-10.88-10.76-17.6-18.47-19.8c1.49-0.89,2.86-1.76,4.15-2.58
                    c8.11-5.14,13.01-8.25,25.44-3.98C681.17,328.8,685.46,332.63,688.21,338.26 M565,252.53c0.05-0.35,0.24-0.66,0.54-0.86
                    c0.05-0.03,0.1-0.05,0.15-0.08l0.66,0.05c0.2,0.02,0.4,0.03,0.58,0.05c0.35,0.25,0.55,0.66,0.51,1.11l-1.45,16.3
                    c-0.83-0.24-1.49-0.27-2.07-0.01c-0.36,0.16-0.87,0.54-1.44,1.02L565,252.53z M599.27,260.66c2.88,0,5.53-0.27,7.97-0.77
                    c-0.27,0.94-0.54,1.89-0.81,2.85c-5.15,3.54-13.12,3.86-19,2.94c-5.3-0.83-8.81-2.54-10.01-3.89l0.41-2.87
                    c0.2-1.38-0.89-2.66-3.19-3.81c-0.13-0.08-0.26-0.16-0.4-0.22c-0.83-0.38-1.75-0.44-2.62-0.19c0.16-2.09-0.13-3.53-0.9-4.52
                    c-0.74-0.96-1.75-1.31-2.77-1.48l0.3-12.66c0.15,0.36,0.3,0.74,0.46,1.09c5.1,11.44,16.67,13.6,28.1,13.6
                    c1.24,0,2.48-0.02,3.71-0.07c3.65-0.12,6.99-0.99,9.99-2.6c-0.13,0.47-0.25,0.93-0.39,1.42c-3,2.4-6.83,3.91-12.15,4.18
                    c-10,0.51-14.53-1.04-21.49-4.66C576.55,256.8,592.54,260.66,599.27,260.66 M559.8,276.8c0,0.01-0.03,0.03-0.05,0.04
                    C559.77,276.82,559.78,276.81,559.8,276.8 M571.6,258.15c0.1-0.43,0.4-0.64,0.57-0.72c0.15-0.08,0.45-0.16,0.79-0.05
                    c0.09,0.04,0.16,0.08,0.25,0.12c0.35,0.22,0.56,0.63,0.5,1.05l-1.87,13.19c-0.78-0.33-1.64-0.75-2.4-1.12
                    c-0.21-0.1-0.4-0.19-0.6-0.29L571.6,258.15z M568.23,273.08c1.89,0.93,3.86,1.89,5.34,1.99c0.07,0.01,0.11,0.02,0.12,0.02
                    c0.05,0.07,0.08,0.39-0.14,0.76c-0.18,0.31-0.74,1.01-2.17,0.87v0.02c-1.35-0.61-2.83-0.72-4.21-1.12
                    c-1.7-0.39-3.41-0.93-5.18-1.24c1.29-1.29,2.46-2.37,2.96-2.69C565.56,271.78,567.15,272.56,568.23,273.08 M576.21,177.71
                    c0,0.01,0.01,0.02,0.01,0.02c7.54-1.04,15.4-0.64,21.86,3.73l0.64-0.47c-0.81-2.07-2.54-3.67-4.4-4.77
                    c-3.99-2.29-8.87-2.77-13.32-1.66c5.84-4.28,12.92-11.08,20.33-21.85c1.92,4.5,5.78,6.56,9.52,8.57
                    c5.13,2.75,10.43,5.59,13.06,14.68c4.78,16.48-2.97,34.95-8.05,40.87c-5.65-4.54-6.25-4.63-15.94-4.69
                    c-10.01-0.04-13.09,1.07-16.56,3.79c-1.96,1.53-3.62,3.33-4.62,4.5c-2.31-2.08-7.53-7.64-8.91-16.5
                    c-1.5-9.68-2.12-19.09-2.3-22.46C569.21,181.03,572.25,180.02,576.21,177.71 M609.8,225.96c-3.34,0.47-6.54,1.01-9.88,1.05
                    c-3.31,0.07-6.52-0.44-9.8-1.13l-0.33,0.8c1.21,0.76,2.51,1.35,3.86,1.8c-1.07,2.26-2.07,3.01-2.67,2.92
                    c-1.41-0.21-3.41-3.7-3.64-7.32c-0.02-0.29,0.12-0.49,0.2-0.58c0.08-0.09,0.26-0.24,0.55-0.25c5.08-0.16,17.47-0.51,22.89-0.2
                    c0.29,0.02,0.47,0.18,0.55,0.28c0.08,0.09,0.21,0.29,0.18,0.56c-0.44,4.36-2.23,6.73-3.07,6.78c0,0-0.01,0-0.01,0
                    c-0.3,0-1-0.64-1.58-2.55c1.04-0.42,2.05-0.92,3-1.52L609.8,225.96z M554.62,195.62c-0.08,0.64-0.12,1.31-0.09,2.01
                    c0.04,2.53,1.67,4.53,4.32,4.34l0.11-0.91c-1.74-0.57-2.35-1.64-2.12-3.39c0.19-1.62,0.78-3.36,1.32-5.14
                    c0.18-0.57,0.47-1.57,0.57-2.19c0.48,5.87,1.09,11.3,1.84,16.32c-2.71,0.15-4.42-1.01-5.5-2.51
                    C553.33,201.71,553.23,198.29,554.62,195.62 M559.74,276.84c0.02,0,0.05,0,0.07,0c2.19,0.12,4.44,0.87,6.69,1.4
                    c0.86,0.24,2.02,0.47,2.82,0.64c0.46,0.11,1.38,0.44,1.59,0.78c0.12,0.54-0.72,1.32-1.15,1.71l-0.05,0.05
                    c-0.02,0.01-0.05,0.01-0.07,0.03c-0.03,0.05-0.16,0.05-0.24,0.1c-1.67,0.17-3.65-0.87-5.15-1.7l-0.42-0.25
                    c-0.21,0.03-3.29,0.47-3.61,0.51h-0.01l-0.56,0.08c-1.2,1.63-2.27,3.38-3.28,5.11c-0.89,1.49-1.76,3.03-2.5,4.57l0.73,0.94
                    c1.92-0.82,3.04-2.37,4.21-3.93c0.66-0.94,1.27-1.9,1.82-2.9c0.33-0.36,0.62-0.66,0.8-0.85l1.71-0.22
                    c3.69,2.15,5.87,2.03,7.58,1.01c0.06-0.03,0.12-0.05,0.18-0.08c-0.14,3.01-0.44,4.63-0.7,6.01c-0.26,1.38-0.51,2.71-0.52,4.91
                    c-6.42,4.3-9.09,9.64-6.95,17.93l1.32-0.23c-0.49-6.26,1-11.43,6.52-14.91c1.77-1.19,3.82-2.2,5.24-4.01
                    c0.78-0.96,1.3-2.07,1.68-3.14c1.05-3.02,1.25-6.22,1.76-9.31c0.32-1.78,1.27-3.31,2.47-3.71c0.96-0.35,2.2,0.05,2.51,1.04
                    l0.04,0.08c-1.9,1.92-2.68,4.93-2.17,7.57c0.09,0.57,0.05,0.61,0.01,1.13c-0.32,1.97-0.64,4.34-0.52,6.41
                    c0.1,1.85,0.44,3.67-0.46,5.39c-0.85,1.74-2.19,3.54-3.02,5.42c-1.25,2.68-1.6,6.06-3.3,8.38c-2.16,3.16-6.13,4.34-9.79,5.18
                    l-0.46,0.11l-0.3,0.36c-3.99,4.49-7.97,5.08-11.12,2.72c-0.66-0.56-1.28-1.19-1.86-1.87c0,0,0.01,0.01,0.01,0.01
                    c-0.9-1.16-1.7-2.62-2.36-4.34c-2.44-6.99-1.58-14.94,0.06-22.1c0.67-2.68,1.45-5.44,2.71-7.86
                    C553.65,281.81,556.54,278.86,559.74,276.84 M561.08,324.28c0.53-0.13,1.06-0.31,1.58-0.54c-4.7,5.19-9.45,11.05-12.18,14.51
                    c-0.34-2.49-0.72-4.92-1.1-7.32c-0.65-4.09-1.27-8.05-1.63-12.05C550.9,324.49,555.96,326.66,561.08,324.28 M574.06,344.21
                    c3.77-4.88,7.47-10.61,11.02-17.12c1.26,2.61,2.97,4.99,5.03,7.01c-8.74,12.96-14.26,20.44-17.51,24.6
                    C573.23,353.95,573.74,349,574.06,344.21 M585.76,316.67c0-10.51,7.41-19.31,17.27-21.47l0.01,0.05
                    c0.23-0.07,0.47-0.13,0.7-0.19c1.3-0.24,2.63-0.37,4-0.37c12.12,0,21.98,9.86,21.98,21.98c0,2.25-0.45,4.74-1.26,7.13
                    c-1.51-0.97-4.65-2.95-8.85-5.46c0.36,0.02,0.72,0.04,1.07,0.04c0.93,0,1.84-0.09,2.65-0.33l1.58-0.46l-0.98-1.32
                    c-2.65-3.58-6.13-5.52-8.24-6.44c1.18-1.42,2.49-4.08,2.25-8.71c0.02-0.39,0.01-0.78-0.04-1.16l-0.16-1.16l-1.16,0.18
                    c-5.27,0.83-8.34,5.02-9.62,7.22c-2.09-1.67-6.72-4.91-11-4.91c-0.02,0-0.05,0-0.07,0l-0.98,0.01l-0.14,0.97
                    c-0.41,2.8,3.96,7.49,6.69,10.11c-0.03,0.03-0.05,0.06-0.08,0.09c-0.56,0.46-1,1.07-1.26,1.75c-0.56-0.34-1.17-0.58-1.87-0.61
                    c-3.38-0.25-5.44,3.92-3.16,6.44c0.21,0.24,0.83,0.74,1.54,1.29c-1.62,1.27-2.31,3.71-1.14,5.59c0.16,0.31,0.51,0.74,0.78,0.97
                    c0.79,0.73,1.58,1.45,2.38,2.17c-0.9,0.53-1.58,1.38-1.9,2.4c-0.3,0.96-0.23,1.99,0.16,2.89
                    C590.3,331.73,585.76,324.47,585.76,316.67 M599.93,334.38c-0.23-0.29-0.3-0.66-0.19-1.01c0.16-0.52,0.57-0.69,0.75-0.74
                    c0.17-0.05,0.62-0.13,1.03,0.22l4.96,4.23c2.99,2.71,6.27,5.66,9.22,7.39l1.13-1.24c-2.88-4.02-8.26-8.46-11.81-11.91
                    c-2.12-1.95-4.21-3.93-6.35-5.86c-0.38-0.29-0.45-0.89-0.13-1.26c0.3-0.41,0.98-0.44,1.33-0.07c2.42,1.82,4.84,3.64,7.3,5.42
                    c0,0,0.07-0.1,0.08-0.1c4.39,3.39,8.88,6.78,13.34,9.6l0.9-1.14c-3.95-3.85-8.27-7.23-12.54-10.66
                    c0.01-0.02,0.12-0.15,0.12-0.15c-2.33-1.89-4.69-3.75-7.06-5.6l0.1,0.08c-0.33-0.3-0.71-0.54-1.11-0.72
                    c-1.3-1.05-2.49-2-3.29-2.64c-0.91-0.59-0.01-1.9,0.84-1.22c0.4,0.28,3.72,2.65,4.19,2.99c6.93,4.76,14.26,10.44,21.72,14.35
                    l0.85-1.2c-5.52-5.16-12.32-9.74-18.57-14.23c-0.97-0.8-2.44-2-3.31-2.71c-0.66-0.51-0.05-1.63,0.75-1.28
                    c8.46,4.6,16.38,10.16,24.77,14.9l1.16-1.74c-0.04-0.03-0.08-0.06-0.12-0.09l0.13,0.06c0.74-1.54,1.34-3.18,1.79-4.84
                    c3.34,4.67,6.6,12.96,7.12,31.24c0.1,3.67,0,7.12-0.21,10.42c-4.05-1.24-14.91-5.05-22.28-12.19
                    C608.94,345.33,602.39,337.43,599.93,334.38 M587.93,445.3v56.53c-17.86-20.77-66.88-39.13-90.07-40.57l33.8-44.57
                    C539,418.22,576.76,426.89,587.93,445.3 M717.99,285.99c11.61,0.72,9.52-5.86,15.84-4.96c3.11,0.44,5,0.23,6.12-0.36
                    c0.24,3.13-0.22,6.34-0.75,9.62c-0.11,0.58-0.23,1.15-0.35,1.73c-6.94,2.71-20.62,3.73-30.72-0.62
                    c-5.89-2.53-9.62-6.48-11.11-11.73c-0.02-0.72-0.05-1.36-0.08-1.91c1.97,0.79,4.19,1.19,6.57,1.19c2.81,0,5.86-0.55,9-1.66
                    c6.1-2.16,15.61-6.84,23.6-10.98c-0.94,1.47-4.1,5.67-11.42,9.52c-9.05,4.76-18.79,6.06-24.99,4.42
                    C702.76,283.67,706.38,285.28,717.99,285.99 M651.55,248.79c-0.55,3.89-1.28,7.7-2.13,11.52c-3.76,16.95-9.9,33.23-16.86,49.12
                    c-1.07-4.36-3.43-8.48-6.89-11.77c-1.61-1.53-3.37-2.8-5.24-3.8c7.73-13.01,13.35-27.11,17.17-41.72
                    c0.97-3.91,1.85-7.85,2.19-11.91c0.02-0.55,0.05-1.08,0.07-1.6c4.37,0.73,8.97,2.14,11.18,5.8
                    C651.77,245.74,651.8,247.32,651.55,248.79 M539.29,239.96c-3.37,1.56-6.64,3.16-9.54,4.7c-5.95,3.17-11.48,9.97-16.57,18.64
                    c-2.23-2.71-6.02-4.57-10.45-6.17c12.58-7.15,22.9-17.99,29.39-30.85c2.36,2.63,4.89,5.11,7.56,7.43
                    C539.14,236.04,539.13,238.25,539.29,239.96 M504.65,251.8c-2.05,1.43-4.15,2.7-6.29,3.86c-0.96-0.3-1.93-0.61-2.91-0.91
                    c-3.45-1.06-6.98-2.17-10.35-3.5c0.49-0.23,1-0.47,1.55-0.75c6.3-3.15,9.36-6.6,15.6-17.59c0.27-0.48,0.68-1.02,1.17-1.61
                    c0.1-0.05,0.19-0.09,0.29-0.15c0,0-0.05-0.11-0.06-0.12c0.47-0.55,1-1.13,1.57-1.76c2.07-2.28,4.64-5.11,6.25-8.51
                    c0.61-1.28,1.11-2.54,1.53-3.77c2.88-2.42,5.25-5.2,7.08-8.23c2.38,4.65,5.19,9.05,8.38,13.15
                    C523.61,233.86,515.36,244.46,504.65,251.8 M413.81,331.3c-3.84,15.07-7.49,25.73-8.58,28.82c-8.12-3.61-16.37-4.08-22.84-3.57
                    c2.32-1.67,4.8-3.37,7.45-5.1c9.96-6.47,17.72-13.67,23.77-21.26L413.81,331.3z M481.54,349.49c1.73-4.97,4.57-8.93,7.98-12.11
                    l0.18,0.01c0-0.06,0.01-0.12,0.01-0.19c7.16-6.59,16.77-9.72,23.97-11.19c-7.7,5.48-14.98,11.54-21,18.9
                    c-4.21,5.21-7.3,11.61-7.88,18.32l1.43,0.2c2.65-13.82,14.27-22.93,25.07-30.79c6.57-4.67,13.5-9.04,20.28-13.45
                    c-2.44,3.92-4.58,8.72-6.31,14.28c-6.03,19.36-6.24,46.41,5.22,58.41c0.3,0.32,0.62,0.62,0.93,0.91
                    c-9.51,0.59-20.04-1.7-35.96-7.61C478.66,378.95,474.75,368.94,481.54,349.49 M525.5,417.96l-33.07,43.6l-8.13,3.31l32.6-44.29
                    L525.5,417.96z M763.84,246.94c-2.14,3.15-6.67,7.15-10.77,8.43c-1.73-2.69-0.12-7.95,1.05-12.07c1.64-5.83,3.74-7.32,6.16-8.18
                    c0.67-0.18,1.35-0.26,1.99-0.2c2.5,0.14,3.48,2.5,3.65,4.74C766.15,242.26,765.3,244.72,763.84,246.94 M706.91,206.14
                    c0.04,0.12,0.07,0.2,0.07,0.2c5.4,0.18,9.35,4.66,8.03,9.81c-0.97-4.81-6.21-5.94-10.28-3.36c0.29-0.86,0.52-1.74,0.68-2.64
                    C705.64,208.84,706.22,207.44,706.91,206.14 M696.13,231.65c0.98-4.09,2.92-7.58,4.82-10.99c1.08-1.94,2.12-3.81,2.95-5.73
                    c0.95-0.41,1.8-0.69,2.58-0.86c-0.94,1.39-0.66,3.28,0.68,4.31c1.4,1.08,3.4,0.83,4.48-0.57c0.49-0.64,0.69-1.4,0.65-2.14
                    c0.68,0.61,1.38,1.36,2.14,2.27c-0.2,0.55-0.42,1.15-0.58,1.51c-1.33,3.14-3.28,5.98-5.72,8.44l-0.95,0.92l-0.5,0.49
                    c-1.96,1.86-1.53,5.03-0.23,7.1c0.57,0.85,1.44,1.61,2.48,1.76l0.07-0.11c-0.88-1.7-1.8-5.39-0.39-6.77
                    c3.34-2.94,6.3-6.38,8.21-10.49c0.82-1.8,1.62-3.63,1.83-5.64c0.24-2.12-0.18-4.36-1.24-6.24c-1.75-3.24-5.9-5.71-9.5-4.54
                    c0.56-0.89,1.1-1.66,1.53-2.24c0.27,0.16,0.53,0.31,0.8,0.44c3.91,1.74,8.86,1.89,12.92,0.2c2.41,7.51,11.58,9.22,18.87,9.29
                    c1.2,3.23,3.67,5.95,6.5,7.82c2.54,1.68,5.25,2.89,8.14,3.72c-1.93,3.66-3.52,7.46-4.01,11.62c-0.08,0.98-0.1,2.01,0.09,3.04
                    c0,3.25-0.09,6.64-8.54,12.43c-0.04,0.03-0.07,0.05-0.11,0.08c-9.32,4.74-14.88,6.64-16.25,6.33c-1.67-0.39-3.1-3.73-4.25-6.42
                    c-1.21-2.83-2.35-5.5-4.21-6.67c-3.49-2.18-10.55-5.4-14.41-6.27c-2.89-0.65-4.62,1.28-5.76,2.56c-0.8,0.9-1.32,1.46-1.88,1.46
                    c-0.14-0.11-0.53-0.58-0.89-1.74C695.8,237.86,695.64,234.57,696.13,231.65 M682.08,264.24l-11.98,0.09
                    c-1.75-4.82-3.29-8.5-4.44-10.31c-1.95-3.07-7.92-7.61-9.49-8.78c-1.03-5.42-6.11-8.53-11.62-10.03
                    c8.46-6.85,15.57-15.34,20.75-24.95C663.19,230.42,669.84,249.68,682.08,264.24 M607.5,101.02
                    c34.3,6.42,60.83,37.31,61.03,72.42c0.53,23.28-10.47,46.42-28.75,60.88c-0.75-0.09-1.48-0.15-2.2-0.19c0,0-0.21,0.33-0.49,0.78
                    l-0.16-0.08c0.95-2.68,1.8-7.37-1.47-11.74c-1.29-1.72-0.79-2.6,0.56-4.6c1.57-2.32,3.72-5.49,0.22-10.46
                    c-4.55-6.47-3.72-12.27-0.96-31.5c0.29-2,0.59-4.13,0.91-6.42c2.2-15.59-7.18-28.75-17.45-34.88
                    c-6.5-3.87-12.94-4.73-17.14-2.34c-6.37-3.2-23.91-3.66-37.49,5.17c-9.32,6.07-19.51,18.48-15.12,43.17
                    c0.28,1.66,2.6,16.48-2.73,25c-2.13,3.4-7.56,12.07-1.14,18.59c-1.78,1.49-3.04,3.14-3.94,4.83
                    c-7.76-7.31-14.09-16.39-18.24-27.03c1.44-4.27,1.95-8.87,1.43-13.57c-0.68-6.12-3.12-11.75-6.77-16.1
                    C518.71,128.71,559.66,91.54,607.5,101.02 M371.73,298.9c6.03-20.22,15.8-34.95,28.84-43.78l11.77,67.69
                    c-6.08,8.6-14.32,16.76-25.49,24.01c-12.91,8.38-22.11,16.38-27.75,24.18c0.83-8.53,1.92-17.04,3.38-25.47
                    c0.77-4.02,1.4-8,2.95-11.75c8.41-22.39,18.56-30.87,35.92-46.16l-1.16-1.41c-7.79,6.01-15.77,11.72-22.79,18.73
                    c-3.75,3.75-7.14,7.9-10.11,12.35C368.7,310.54,370.31,303.66,371.73,298.9 M371.87,415.93c-8.76-10.24-15.34-18.9-13.84-29.25
                    c1.14-7.87,6.96-16.11,17.67-24.97c9.56-2.08,32.89-4.19,46.34,19.83l0.05-0.03l8.62,15.27c-1.7,0.44-4.05,1.45-6.44,3.72
                    c-6.67,6.33-10.06,18.59-10.06,36.43c0,8.2,1.03,15.58,2.75,21.19C405.17,449.21,384.36,430.55,371.87,415.93 M486.9,386.61
                    c2.05,1.13,4.34,2.17,6.88,3.11c9.83,3.65,17.84,5.98,24.89,7.13c-0.42,5.56-0.45,12.68-0.13,18.92l-7.06,2.16l-2.38,3.1
                    l-10.18-1.22l-7.28,8.88L486.9,386.61z M600.92,517.9v2.18c0,4.93-6.02,8.37-11.44,8.38c-5.41-0.01-11.44-3.45-11.44-8.38v-2.18
                    l-116.77-42.4l40.29-49.14l3.14,0.37l-35.05,45.63l73.83,23.95l38.68,14.61c-0.22,0.72-0.34,1.49-0.34,2.28
                    c0,4.44,3.6,8.05,8.05,8.05c4.44,0,8.05-3.6,8.05-8.05c0-0.42-0.04-0.83-0.1-1.24l80.45-29.54l31.05-10.07l-35.48-46.18h3.41
                    l40.44,49.32L600.92,517.9z M741.05,338.68c-1.27,3.43-2.93,6.84-4.57,10.12c-6.26,12.55-12.72,25.07-17.89,38.18
                    c1.55-14.02,4.65-27.91,8.77-41.43c4.21-14.55,10.15-28.45,14.25-43.09c1.99-7.57,4-15.02,3.36-23.09l4.31,2.85l0.59,0.39
                    c1,0.67,1.53,1.7,1.6,2.92C753.51,303.71,747.45,321.84,741.05,338.68 M801.81,444.05c-12.22-5.96-20.06-17.06-23.3-33.08
                    c-1.14-5.62-1.61-11.42-1.61-17.08c0.15-14.61,3.37-27.96,6.23-34.66c0.34,4.14,0.8,8.27,1.43,12.41
                    c0.76,4.73,1.75,9.45,3.32,14.08C786.2,399.14,792.55,431.86,801.81,444.05 M765.88,285.73c-0.77,0.99-1.16,2.27-1.05,3.53
                    l0.01,0.72c0.01,0.74,0.04,1.49,0.05,2.23l-7.36-4.9c2.88-0.81,5.69-1.8,8.43-2.96C765.94,284.8,765.91,285.26,765.88,285.73
                     M768.93,299.27c-0.32-1.03-0.69-2.34-0.73-3.36c2.97-2.6,6.62-4.19,9.62-6.9c0,0-0.88-1.6-0.88-1.6
                    c-3.14,1.03-6.05,2.59-8.77,4.45c-0.01-0.68-0.01-1.36-0.03-2.04c-0.03-1.1-0.15-1.78,0.67-2.44c2.37-1.28,7.24-3.84,10.02-6.05
                    l-0.87-1.65c-1.91,0.61-3.73,1.41-5.53,2.27c-0.91,0.45-2.02,0.99-3.1,1.53c0.16-1.27,0.31-2.54,0.44-3.8
                    c0.05-0.44,0.35-0.8,0.75-0.96c3.37-1.57,6.86-2.83,9.84-5.15l-0.64-1.51c-1.79,0.24-3.45,0.77-5.08,1.37
                    c-1.12,0.44-2.24,0.88-3.35,1.32l0.89-4.08c0.15-0.59,0.55-1.28,1.12-1.88c7.54-2.92,9.93-3.83,13.06-2.1
                    c3.01,3.28,6.63,6.02,9.55,9.33c1.57,1.81,3.14,3.5,3.69,5.83c0.58,2.29,0.8,4.95,1.04,7.58c0.44,5.29,0.73,10.73,1.56,16.17
                    c0.72,4.78,1.81,9.63,3.77,14.1c7.68,17.81,15.34,44,13.41,63.32c-0.74,7.05-3.78,14.96-11.79,15.64
                    c-13.47,1.75-17.19-17.56-18.95-27.67c-3.1-20.22-2.15-41.01-1.51-61.46c2.89,1.5,6.05,2.47,9.24,2.79l0.27-1.24
                    c-8.2-2.74-15.74-8.17-19.03-16.37l-0.03-0.17c-2.8,0.56-6.87,3.68-7.65,4.3l2.21,2.81l-0.59,3.37
                    C770.31,303.42,769.6,301.25,768.93,299.27 M765.31,397.31l15.99-91.9c0.6,0.56,1.23,1.1,1.88,1.61c-0.06,0-0.1,0-0.1,0
                    c-0.11,4.56-0.35,11.4-0.52,16.05c-0.23,8.92-0.34,17.84,0.01,26.74c-5.27,6.89-13.4,35.91-8.12,61.99
                    c0.45,2.22,0.99,4.36,1.62,6.41C769.85,411.77,766.8,404.8,765.31,397.31 M804.04,219.04c0.39,15.75-5.2,31.45-15.1,43.67
                    c-0.06-0.05-0.13-0.09-0.19-0.14l11.3-64.95C802.58,204.38,803.99,211.6,804.04,219.04"/>
                <path fill="#7A1C2C" d="M627.24,445.59c8.14-3.54,16.13-6.42,24.19-8.43l-1.97-2.91c-7.84,2.02-15.59,4.86-23.49,8.3L627.24,445.59
                    z"/>
                <path fill="#7A1C2C" d="M634.72,463.5c9.51-3.83,19.07-6.78,28.65-8.81l-1.99-2.93c-9.34,2.06-18.67,4.98-27.94,8.71L634.72,463.5z
                    "/>
                <path fill="#7A1C2C" d="M645.98,428.23l-1.97-2.91c-7.24,1.85-14.51,4.65-21.9,7.99l1.27,3.04
                    C631.03,432.92,638.53,430.08,645.98,428.23"/>
                <path fill="#7A1C2C" d="M630.92,454.4c8.75-3.62,17.61-6.55,26.59-8.63l-1.98-2.92c-8.74,2.09-17.36,4.98-25.88,8.51L630.92,454.4z
                    "/>
                <path fill="#7A1C2C" d="M601.71,476.63l0.21,3.76c9.24-5.82,18.59-10.78,28.01-14.88l-1.02-3.15
                    C619.76,466.32,610.69,471.07,601.71,476.63"/>
                <path fill="#7A1C2C" d="M625.86,452.98c-8.34,3.66-16.58,7.91-24.75,12.64l0.2,3.7c8.43-4.96,16.95-9.4,25.57-13.19L625.86,452.98z
                    "/>
                <path fill="#7A1C2C" d="M622.92,443.9c-7.26,3.29-14.66,7.05-22.39,11.14l0.2,3.62c8.03-4.3,15.7-8.22,23.21-11.62L622.92,443.9z"
                    />
                <path fill="#7A1C2C" d="M620.84,437.5l-1.02-3.14c-6.49,3-13.09,6.38-19.88,9.86l0.2,3.6C607.21,444.14,614.09,440.61,620.84,437.5
                    "/>
                <path fill="#7A1C2C" d="M524.55,442.85l-1.98,2.92c8.98,2.08,17.84,5.01,26.59,8.63l1.27-3.04
                    C541.91,447.83,533.29,444.94,524.55,442.85"/>
                <path fill="#7A1C2C" d="M557.97,433.31c-7.4-3.33-14.66-6.13-21.9-7.99l-1.97,2.91c7.46,1.85,14.96,4.69,22.6,8.11L557.97,433.31z"
                    />
                <path fill="#7A1C2C" d="M516.7,454.68c9.58,2.03,19.15,4.99,28.65,8.82l1.27-3.04c-9.27-3.73-18.59-6.65-27.94-8.71L516.7,454.68z"
                    />
                <path fill="#7A1C2C" d="M554.11,442.55c-7.9-3.44-15.65-6.28-23.49-8.3l-1.97,2.91c8.06,2.01,16.04,4.9,24.19,8.43L554.11,442.55z"
                    />
                <path fill="#7A1C2C" d="M553.19,456.12c8.62,3.79,17.14,8.23,25.57,13.19l0.2-3.7c-8.17-4.73-16.42-8.98-24.75-12.64L553.19,456.12
                    z"/>
                <path fill="#7A1C2C" d="M580.14,444.21c-6.79-3.48-13.39-6.85-19.88-9.86l-1.02,3.15c6.75,3.11,13.63,6.64,20.71,10.32
                    L580.14,444.21z"/>
                <path fill="#7A1C2C" d="M550.15,465.51c9.42,4.1,18.77,9.06,28.01,14.88l0.21-3.76c-8.97-5.56-18.05-10.31-27.2-14.27
                    L550.15,465.51z"/>
                <path fill="#7A1C2C" d="M556.14,447.05c7.51,3.4,15.19,7.32,23.21,11.62l0.2-3.63c-7.73-4.09-15.13-7.86-22.39-11.14L556.14,447.05
                    z"/>
            </g>
            <g>
                <path fill="#C3956C" d="M785.02,174.16c-9.28-9.42-21.34-16.16-34.72-18.66c-4.47-0.89-8.88-1.31-13.19-1.31
                    c-44.94,0-78.64,46.04-61.29,90.47c2.85,7.39,6.9,13.94,11.82,19.54l0.9-0.01c0-0.3,0-0.63,0.02-0.95
                    c0.33-6.35,1.19-10.53,2.03-14.56c0.8-3.85,1.56-7.5,1.81-12.86c0.08-1.65,0.3-3.21,0.65-4.69c0.3-1.73,0.79-3.35,1.53-4.73
                    c1.08-2.64,2.4-5.01,3.65-7.24c1.82-3.28,3.54-6.36,4.11-9.55c0.64-3.63,3.31-7.59,4.72-9.46c-0.32-0.38-0.61-0.79-0.84-1.24
                    c-1.67-3.22-1.61-7.09-0.07-10.36c1.56-3.11,4.53-4.88,7.07-6.81c2.53-1.81,4.33-4.37,6.9-6.14c3.83-2.86,7.96-4.14,12.08-4.14
                    c5.2,0,10.37,2.03,14.95,5.48c3.43,0.35,6.86,1.03,10.16,2.23c8.77,2.96,16.04,10.49,18.04,19.61c0.7,3.6,0.42,7,1.03,10.5
                    c0.26,1.47,0.67,3.58,1.05,5.05c0.76,3.52,1.11,7.28,0.51,10.98c-1.07,6.57-4.59,12.15-8.04,17.6
                    c-1.2,8.16-9.9,15.75-17.8,15.91c-0.56-0.03-1.18-0.12-1.81-0.4c-0.03,0.03-0.06,0.05-0.09,0.07
                    c-2.59,4.91-5.12,9.95-6.78,13.74c0.44,0.3,1.27,0.83,1.57,1.04c2.24,1.52,6.3,4.07,8.49,5.68c1.55,1.3,2.62,3.15,2.94,5.15
                    c0.01,0.1,0.02,0.2,0.03,0.3c3.32-0.97,6.61-2.22,9.8-3.75c0.1-1,0.15-2.19,0.68-3.04c0.21-0.39,0.48-0.73,0.8-1.03l1.43-6.59
                    c0.51-2.06,2.43-4.56,5.13-5.42l0.1-0.03l0.52-0.14l0.08-0.01l13.85-86.02C787.62,176.91,786.35,175.5,785.02,174.16"/>
                <path fill="#C3956C" d="M479.65,131.92c-4.47-0.88-8.88-1.3-13.18-1.3c-28.84-0.01-53.04,18.95-62.1,44.28
                    c-0.77,2.17-1.44,4.37-1.99,6.63l8.9,51.53c0.53,0.83,1.08,1.63,1.64,2.41c1.56,2.18,3.25,4.25,5.03,6.19
                    c4.42-1.04,9.06-1.63,13.89-1.78c0.17-0.75,0.36-1.52,0.6-2.26c-7.68-7.83-5.13-14.38-2.2-21.89c0.19-0.5,0.39-1.01,0.59-1.53
                    c-4.12-7.5-5.76-24.34,3.49-32.19c1.18-6.85,6.03-23.47,25.64-28.9l0.18-0.09l0.28-0.03c3.88-1.03,8.34-1.63,13.43-1.63
                    c2.55,0,5.27,0.15,8.16,0.47c16.58,1.81,25.11,9.11,29.47,15.67c0.33-5.93,1.27-11.62,2.73-17.04
                    C504.97,141.1,492.98,134.41,479.65,131.92"/>
                <path fill="#C3956C" d="M788.75,262.58c0.07,0.04,0.13,0.09,0.19,0.13c9.9-12.22,15.49-27.92,15.1-43.67
                    c-0.06-7.44-1.47-14.66-3.99-21.42L788.75,262.58z"/>
                <path fill="#C3956C" d="M522.95,202.61c4.16,10.64,10.48,19.72,18.24,27.03c0.9-1.69,2.16-3.34,3.94-4.83
                    c-6.41-6.52-0.99-15.19,1.14-18.59c5.33-8.52,3.02-23.34,2.73-25c-4.39-24.68,5.79-37.1,15.12-43.17
                    c13.58-8.84,31.12-8.37,37.49-5.17c4.2-2.38,10.65-1.53,17.14,2.34c10.27,6.13,19.65,19.29,17.45,34.88
                    c-0.32,2.29-0.63,4.42-0.92,6.42c-2.76,19.23-3.59,25.03,0.96,31.5c3.5,4.97,1.35,8.14-0.22,10.46c-1.36,2-1.86,2.88-0.57,4.6
                    c3.28,4.37,2.43,9.06,1.48,11.74l0.16,0.08c0.28-0.44,0.49-0.78,0.49-0.78c0.71,0.04,1.45,0.1,2.2,0.19
                    c18.28-14.45,29.28-37.59,28.74-60.88c-0.19-35.11-26.73-66-61.03-72.42c-47.84-9.47-88.8,27.69-89.9,71.93
                    c3.66,4.35,6.09,9.98,6.77,16.1C524.9,193.74,524.39,198.34,522.95,202.61"/>
                <path fill="#C3956C" d="M503.66,231.02c0.01,0.01,0.06,0.12,0.06,0.12c-0.09,0.05-0.19,0.1-0.29,0.15
                    c-0.49,0.59-0.9,1.13-1.18,1.62c-6.24,10.99-9.3,14.44-15.6,17.59c-0.55,0.28-1.06,0.52-1.56,0.75c3.37,1.33,6.9,2.44,10.35,3.5
                    c0.98,0.3,1.95,0.6,2.91,0.91c2.14-1.15,4.24-2.43,6.29-3.86c10.71-7.34,18.96-17.94,23.82-29.9c-3.2-4.1-6.01-8.51-8.38-13.15
                    c-1.83,3.04-4.2,5.82-7.08,8.23c-0.42,1.24-0.93,2.49-1.53,3.77c-1.61,3.4-4.18,6.24-6.25,8.52
                    C504.66,229.89,504.13,230.47,503.66,231.02"/>
                <path fill="#C3956C" d="M587.93,445.29c-11.17-18.4-48.93-27.08-56.27-28.61l-33.8,44.58c23.2,1.44,72.21,19.79,90.07,40.56V445.29
                    z M536.07,425.32c7.24,1.85,14.5,4.66,21.9,7.99l-1.27,3.04c-7.65-3.42-15.15-6.26-22.6-8.11L536.07,425.32z M530.62,434.25
                    c7.84,2.01,15.59,4.86,23.49,8.3l-1.27,3.04c-8.15-3.54-16.13-6.42-24.19-8.43L530.62,434.25z M545.35,463.5
                    c-9.51-3.83-19.07-6.78-28.65-8.82l1.99-2.93c9.34,2.06,18.67,4.98,27.94,8.71L545.35,463.5z M522.57,445.77l1.98-2.92
                    c8.74,2.09,17.36,4.98,25.88,8.51l-1.27,3.04C540.4,450.78,531.55,447.85,522.57,445.77 M578.16,480.39
                    c-9.24-5.82-18.59-10.78-28.01-14.88l1.02-3.15c9.14,3.96,18.22,8.71,27.19,14.27L578.16,480.39z M578.76,469.31
                    c-8.43-4.97-16.95-9.4-25.57-13.19l1.02-3.15c8.34,3.66,16.58,7.91,24.75,12.64L578.76,469.31z M579.35,458.67
                    c-8.03-4.3-15.7-8.22-23.21-11.62l1.02-3.15c7.26,3.29,14.66,7.05,22.39,11.14L579.35,458.67z M579.94,447.81
                    c-7.08-3.67-13.95-7.2-20.71-10.32l1.02-3.14c6.49,3,13.09,6.38,19.88,9.86L579.94,447.81z"/>
                <path fill="#C3956C" d="M585.75,505.69c-16.18-20.34-69.22-41.08-91.58-40.36l-7.97,3.25c23.06,4.98,55.07,16.59,98.73,36.85
                    L585.75,505.69z"/>
                <polygon fill="#C3956C" points="492.43,461.57 525.5,417.96 516.9,420.59 484.3,464.88                 "/>
                <polygon fill="#C3956C" points="661.12,420.3 653.46,417.96 686.53,461.57 693.62,464.45                 "/>
                <path fill="#C3956C" d="M681.1,461.26l-33.8-44.57c-7.34,1.53-45.1,10.2-56.27,28.61v56.53
                    C608.89,481.06,657.91,462.7,681.1,461.26 M600.53,455.05c7.73-4.09,15.13-7.86,22.39-11.14l1.02,3.14
                    c-7.51,3.4-15.19,7.32-23.21,11.62L600.53,455.05z M601.11,465.61c8.17-4.73,16.42-8.98,24.75-12.64l1.02,3.14
                    c-8.62,3.79-17.14,8.23-25.57,13.19L601.11,465.61z M601.92,480.39l-0.21-3.76c8.97-5.55,18.05-10.31,27.2-14.27l1.02,3.15
                    C620.51,469.61,611.16,474.56,601.92,480.39 M663.37,454.68c-9.58,2.03-19.15,4.99-28.65,8.82l-1.27-3.04
                    c9.26-3.73,18.59-6.65,27.94-8.71L663.37,454.68z M657.51,445.77c-8.98,2.08-17.84,5.01-26.59,8.63l-1.27-3.04
                    c8.52-3.53,17.14-6.42,25.88-8.51L657.51,445.77z M649.46,434.25l1.97,2.91c-8.06,2.02-16.04,4.9-24.19,8.43l-1.27-3.04
                    C633.87,439.1,641.62,436.27,649.46,434.25 M644.01,425.32l1.97,2.91c-7.46,1.85-14.95,4.69-22.6,8.11l-1.27-3.04
                    C629.51,429.97,636.77,427.17,644.01,425.32 M619.82,434.35l1.02,3.14c-6.75,3.12-13.63,6.65-20.71,10.32l-0.2-3.6
                    C606.73,440.74,613.33,437.36,619.82,434.35"/>
                <path fill="#C3956C" d="M684.79,465.33c-22.25-0.73-74.77,19.77-91.29,40c43.86-20.34,75.94-31.94,99-36.86L684.79,465.33z"/>
                <path fill="#C3956C" d="M673.83,426.19l35.48,46.18l-31.05,10.07l-80.45,29.54c0.06,0.4,0.1,0.82,0.1,1.24
                    c0,4.44-3.6,8.05-8.05,8.05c-4.44,0-8.05-3.6-8.05-8.05c0-0.79,0.12-1.56,0.34-2.28l-38.68-14.61l-73.83-23.95l35.05-45.63
                    l-3.14-0.38l-40.29,49.14l116.77,42.4v2.18c0,4.93,6.02,8.37,11.44,8.38c5.41-0.01,11.44-3.45,11.44-8.38v-2.18l116.77-42.4
                    l-40.44-49.32H673.83z"/>
            </g>
        </g>
    </g>
</svg>
