<svg width="16" height="16" viewBox="0 0 16 16" fill="none" xmlns="http://www.w3.org/2000/svg">
<path d="M4 12.5V5.021C5.214 5.719 6.601 6.058 8 6C9.399 6.058 10.786 5.719 12 5.021V6.023C12.343 6.054 12.678 6.117 13 6.208V3.5C13 2.075 10.851 1 8 1C5.149 1 3 2.075 3 3.5V12.5C3 13.795 4.775 14.801 7.239 14.974C6.968 14.642 6.734 14.277 6.545 13.887C4.956 13.628 4 12.979 4 12.5ZM8 2C10.441 2 12 2.888 12 3.5C12 4.112 10.441 5 8 5C5.559 5 4 4.112 4 3.5C4 2.888 5.558 2 8 2ZM11.5 7C9.015 7 7 9.015 7 11.5C7 13.985 9.015 16 11.5 16C13.985 16 16 13.985 16 11.5C16 9.015 13.985 7 11.5 7ZM13.854 11.146C14.049 11.341 14.05 11.658 13.855 11.853L11.855 13.853C11.807 13.901 11.752 13.938 11.693 13.962C11.635 13.986 11.572 14 11.505 14H11.499C11.433 14 11.369 13.986 11.311 13.962C11.253 13.938 11.198 13.903 11.151 13.856L11.148 13.853L9.148 11.853C8.953 11.658 8.953 11.341 9.148 11.146C9.343 10.951 9.66 10.951 9.855 11.146L11.001 12.292V9.499C11.001 9.223 11.225 8.999 11.501 8.999C11.777 8.999 12.001 9.223 12.001 9.499V12.292L13.147 11.146C13.342 10.951 13.659 10.951 13.854 11.146Z" fill="#212121"/>
</svg>
