<svg xmlns="http://www.w3.org/2000/svg" viewBox="0 0 24 24">
  <path d="M12 3C7.58 3 4 4.57 4 6.5v11C4 19.43 7.58 21 12 21s8-1.57 8-3.5v-11C20 4.57 16.42 3 12 3Zm0 1.5c4.02 0 6.5 1.32 6.5 2S16.02 8.5 12 8.5 5.5 7.18 5.5 6.5 7.98 4.5 12 4.5Zm6.5 13c0 .68-2.48 2-6.5 2s-6.5-1.32-6.5-2v-2.03C6.93 16.39 9.34 17 12 17s5.07-.61 6.5-1.53V17.5Zm0-4c0 .68-2.48 2-6.5 2s-6.5-1.32-6.5-2v-2.03C6.93 12.39 9.34 13 12 13s5.07-.61 6.5-1.53V13.5Zm0-4c0 .68-2.48 2-6.5 2s-6.5-1.32-6.5-2V8.47C6.93 9.39 9.34 10 12 10s5.07-.61 6.5-1.53V9.5Z"/>
</svg>
